HIERARCHY
ROOT Hips
{
    OFFSET 0.000000 0.000000 0.000000
    CHANNELS 6 Xposition Yposition Zposition Zrotation Xrotation Yrotation
    JOINT Spine
    {
        OFFSET -0.000000 14.517291 0.000000
        CHANNELS 3 Zrotation Xrotation Yrotation
        JOINT Spine1
        {
            OFFSET -0.000000 37.558300 0.000000
            CHANNELS 3 Zrotation Xrotation Yrotation
            JOINT Neck
            {
                OFFSET -0.000000 37.404057 3.400369
                CHANNELS 3 Zrotation Xrotation Yrotation
                JOINT Head
                {
                    OFFSET -0.000000 24.785618 -3.540803
                    CHANNELS 3 Zrotation Xrotation Yrotation
                    End Site
                    {
                        OFFSET -0.000000 35.408028 0.000000
                    }
                }
            }
            JOINT LeftShoulder
            {
                OFFSET 6.992933 33.973492 -0.192664
                CHANNELS 3 Zrotation Xrotation Yrotation
                JOINT LeftArm
                {
                    OFFSET 21.527611 0.000000 0.000000
                    CHANNELS 3 Zrotation Xrotation Yrotation
                    JOINT LeftForeArm
                    {
                        OFFSET 56.353916 0.000000 0.000000
                        CHANNELS 3 Zrotation Xrotation Yrotation
                        JOINT LeftHand
                        {
                            OFFSET 47.774071 0.000000 0.000000
                            CHANNELS 3 Zrotation Xrotation Yrotation
                            End Site
                            {
                                OFFSET 26.556021 0.000000 0.000000
                            }
                        }
                    }
                }
            }
            JOINT RightShoulder
            {
                OFFSET -7.065357 33.973492 -0.192664
                CHANNELS 3 Zrotation Xrotation Yrotation
                JOINT RightArm
                {
                    OFFSET -21.527611 0.000000 0.000000
                    CHANNELS 3 Zrotation Xrotation Yrotation
                    JOINT RightForeArm
                    {
                        OFFSET -56.353916 0.000000 0.000000
                        CHANNELS 3 Zrotation Xrotation Yrotation
                        JOINT RightHand
                        {
                            OFFSET -47.774071 0.000000 0.000000
                            CHANNELS 3 Zrotation Xrotation Yrotation
                            End Site
                            {
                                OFFSET -26.556021 0.000000 0.000000
                            }
                        }
                    }
                }
            }
        }
    }
    JOINT LeftUpLeg
    {
        OFFSET 17.704014 0.000000 0.000000
        CHANNELS 3 Zrotation Xrotation Yrotation
        JOINT LeftLeg
        {
            OFFSET -0.000000 -81.181816 0.000000
            CHANNELS 3 Zrotation Xrotation Yrotation
            JOINT LeftFoot
            {
                OFFSET -0.000000 -62.821102 0.000000
                CHANNELS 3 Zrotation Xrotation Yrotation
                JOINT LeftToeBase
                {
                    OFFSET -0.000000 -11.507608 26.556021
                    CHANNELS 3 Zrotation Xrotation Yrotation
                    End Site
                    {
                        OFFSET -0.000000 0.000000 7.081605
                    }
                }
            }
        }
    }
    JOINT RightUpLeg
    {
        OFFSET -17.704014 0.000000 0.000000
        CHANNELS 3 Zrotation Xrotation Yrotation
        JOINT RightLeg
        {
            OFFSET -0.000000 -81.181816 0.000000
            CHANNELS 3 Zrotation Xrotation Yrotation
            JOINT RightFoot
            {
                OFFSET -0.000000 -62.821102 0.000000
                CHANNELS 3 Zrotation Xrotation Yrotation
                JOINT RightToeBase
                {
                    OFFSET -0.000000 -11.507608 26.556021
                    CHANNELS 3 Zrotation Xrotation Yrotation
                    End Site
                    {
                        OFFSET -0.000000 0.000000 7.081605
                    }
                }
            }
        }
    }
}
MOTION
Frames:    13
Frame Time:    0.008333
-1.187256    151.508118    -102.487885    1.159057    -4.100435    49.201584    -2.065021    2.686696    -3.953452    -3.643058    1.649384    -1.281197    4.534667    4.561981    -18.098576    14.094854    1.135497    -17.538513    6.002918    8.370560    -19.639753    -25.894411    23.292410    -56.912941    -4.786893    -7.509233    -102.429764    12.497166    -14.167804    -7.452594    -8.606807    -1.414833    -4.338808    24.490610    -22.939068    49.492046    -20.228657    -14.679533    66.098312    -1.994458    -2.137136    36.363449    27.907572    -5.808273    10.450826    -12.504775    29.508272    -14.180352    -3.733718    -20.180935    41.543213    0.000000    0.000000    0.000000    -22.462778    -17.358950    -17.557211    12.083550    29.030659    -11.006100    4.276639    -0.841243    -19.187862    0.000000    0.000000    0.000000    
-1.275620    151.542023    -102.405968    1.129476    -4.087407    49.131100    -2.070729    2.684029    -3.913831    -3.613979    1.642800    -1.268631    4.530742    4.539173    -18.088659    14.134014    1.150075    -17.525412    5.993556    8.353514    -19.616608    -25.871634    23.330267    -56.902309    -4.789657    -7.509169    -102.487099    12.577944    -14.173977    -7.374894    -8.612105    -1.444575    -4.325569    24.520309    -22.958519    49.516045    -20.222689    -14.641600    66.137100    -2.050216    -2.109015    36.292328    27.857241    -5.804178    10.333239    -12.365272    29.448509    -14.403859    -3.534354    -20.173214    41.260902    0.000000    0.000000    0.000000    -22.442411    -17.322493    -17.903364    12.050384    28.930370    -10.989295    4.122289    -0.785506    -18.818562    0.000000    0.000000    0.000000    
-1.370864    151.587112    -102.314690    1.084191    -4.079609    49.039837    -2.076975    2.666523    -3.864211    -3.560652    1.644550    -1.252750    4.470221    4.522027    -18.092316    14.221201    1.178228    -17.515726    5.966996    8.342655    -19.585909    -25.862930    23.350689    -56.885410    -4.800292    -7.493975    -102.536095    12.637493    -14.174492    -7.313836    -8.626074    -1.448557    -4.334859    24.560133    -22.977316    49.580326    -20.216938    -14.612321    66.163971    -2.077850    -2.085166    36.305317    27.806337    -5.793944    10.226138    -12.184713    29.373190    -14.709779    -3.387340    -20.267563    40.767513    0.000000    0.000000    0.000000    -22.378922    -17.307896    -18.286991    11.939549    28.839777    -10.910889    3.986018    -0.705126    -18.432619    0.000000    0.000000    0.000000    
-1.464671    151.643616    -102.229858    1.039172    -4.065953    48.933262    -2.082001    2.655322    -3.804264    -3.528010    1.640162    -1.233376    4.477506    4.504109    -18.092899    14.249664    1.170582    -17.513308    5.971964    8.331681    -19.561701    -25.885508    23.347481    -56.864532    -4.842014    -7.436862    -102.576706    12.691311    -14.175249    -7.299089    -8.606158    -1.463839    -4.332551    24.553493    -22.952488    49.611931    -20.239227    -14.660697    66.187416    -2.033716    -2.098729    36.266472    27.730728    -5.795643    10.073155    -11.990829    29.316410    -15.056488    -3.187575    -20.342665    40.546322    0.000000    0.000000    0.000000    -22.318235    -17.312468    -18.596802    11.861468    28.752012    -10.787180    3.891638    -0.631320    -18.183006    0.000000    0.000000    0.000000    
-1.553216    151.707230    -102.156342    0.994033    -4.038034    48.802250    -2.076595    2.632379    -3.734957    -3.520818    1.639624    -1.210205    4.492626    4.471580    -18.079506    14.273353    1.183818    -17.500875    5.969503    8.307667    -19.541094    -25.927254    23.338606    -56.820625    -4.871652    -7.357033    -102.614998    12.727394    -14.135743    -7.265691    -8.597322    -1.507810    -4.280057    24.571991    -22.967243    49.586182    -20.203480    -14.658087    66.263603    -2.021533    -2.096842    36.265369    27.591074    -5.769418    9.835391    -11.832853    29.269455    -15.289291    -2.690246    -20.437321    40.511124    0.000000    0.000000    0.000000    -22.250465    -17.334368    -18.866631    11.759844    28.649197    -10.612505    3.801255    -0.546026    -17.961143    0.000000    0.000000    0.000000    
-1.645810    151.785706    -102.074638    0.940111    -4.025804    48.634743    -2.051555    2.611956    -3.641038    -3.530715    1.645314    -1.178285    4.524335    4.447993    -18.064924    14.291798    1.169619    -17.485901    5.981572    8.279278    -19.533875    -25.991131    23.305658    -56.746071    -4.879303    -7.265969    -102.659889    12.691096    -14.056571    -7.246558    -8.579874    -1.536480    -4.246113    24.582735    -22.954706    49.584351    -20.208651    -14.689081    66.288116    -2.034554    -2.123724    36.286316    27.490410    -5.742587    9.543427    -11.677322    29.199303    -15.511247    -2.371278    -20.584375    40.587475    0.000000    0.000000    0.000000    -22.123861    -17.371956    -18.958300    11.676282    28.507233    -10.495005    3.730595    -0.438195    -17.835827    0.000000    0.000000    0.000000    
-1.740377    151.869919    -101.994217    0.879409    -4.021383    48.446724    -1.997516    2.599802    -3.546017    -3.573832    1.646633    -1.145465    4.572793    4.441155    -18.058947    14.313478    1.127174    -17.477180    6.000049    8.247724    -19.496244    -26.045448    23.276312    -56.689060    -4.924438    -7.154271    -102.707878    12.721154    -14.008299    -7.235675    -8.556112    -1.544013    -4.220001    24.623800    -22.970095    49.616196    -20.217880    -14.673450    66.325447    -2.096622    -2.112177    36.290005    27.387857    -5.725927    9.201810    -11.504436    29.175001    -15.766306    -2.026169    -20.771164    40.755871    0.000000    0.000000    0.000000    -21.969149    -17.418665    -18.988045    11.591402    28.347208    -10.325100    3.666643    -0.326019    -17.797270    0.000000    0.000000    0.000000    
-1.848097    151.956039    -101.924881    0.795682    -4.003356    48.227432    -1.951608    2.576163    -3.437024    -3.591302    1.626145    -1.109017    4.587184    4.413330    -18.040478    14.338049    1.130872    -17.457865    6.007280    8.239231    -19.472542    -26.054651    23.272234    -56.640308    -4.907389    -7.157403    -102.742897    12.685935    -13.991281    -7.228158    -8.538223    -1.533888    -4.186520    24.644949    -22.977058    49.657612    -20.251276    -14.665084    66.332176    -2.137633    -2.092534    36.291866    27.309706    -5.703103    8.712210    -11.536126    29.081207    -15.687366    -1.611694    -20.972765    40.877007    0.000000    0.000000    0.000000    -21.791521    -17.515446    -18.896414    11.535072    28.167791    -10.250290    3.588419    -0.188125    -17.764221    0.000000    0.000000    0.000000    
-1.938728    152.053421    -101.853493    0.728786    -3.999605    47.989059    -1.906364    2.568768    -3.305416    -3.597015    1.626798    -1.064652    4.609035    4.361507    -18.017014    14.339159    1.125028    -17.436911    6.002542    8.206827    -19.452946    -26.056982    23.269114    -56.611546    -4.909357    -7.125596    -102.765289    12.794704    -13.972539    -7.234456    -8.535253    -1.517280    -4.201084    24.680027    -22.985641    49.737732    -20.258417    -14.671242    66.351036    -2.119004    -2.082549    36.256142    27.193439    -5.632054    8.224426    -11.471245    28.952890    -15.687707    -1.129396    -21.125877    40.957634    0.000000    0.000000    0.000000    -21.600220    -17.595921    -18.714687    11.491495    27.972702    -10.184999    3.565452    -0.041667    -17.811932    0.000000    0.000000    0.000000    
-2.004555    152.146774    -101.781021    0.652859    -3.968423    47.729218    -1.856465    2.502188    -3.184871    -3.611522    1.658839    -1.022527    4.575933    4.365263    -18.007786    14.410891    1.074164    -17.407866    5.975760    8.192453    -19.401108    -26.011610    23.290087    -56.588650    -4.885906    -7.161952    -102.805466    12.780141    -13.982202    -7.229689    -8.570633    -1.498453    -4.185897    24.770084    -23.021891    49.841686    -20.230389    -14.649654    66.378067    -2.100625    -2.065971    36.237934    27.079931    -5.548593    7.685151    -11.567416    28.886812    -15.571767    -0.521326    -21.388081    41.087364    0.000000    0.000000    0.000000    -21.426071    -17.690668    -18.507700    11.451227    27.766569    -10.102522    3.520929    0.082690    -17.832420    0.000000    0.000000    0.000000    
-2.100448    152.246887    -101.714828    0.579381    -3.933757    47.455193    -1.832931    2.487267    -3.066682    -3.631596    1.645000    -0.983041    4.600398    4.308064    -17.974499    14.421626    1.081155    -17.377499    6.004966    8.159559    -19.337570    -26.033077    23.304453    -56.562794    -4.898355    -7.155404    -102.844765    12.790363    -13.994258    -7.215979    -8.538642    -1.510726    -4.145133    24.810984    -23.086117    49.916553    -20.143747    -14.579240    66.426353    -2.121018    -2.046624    36.228806    26.928143    -5.472838    7.279643    -11.417584    28.745901    -15.716425    0.085639    -21.516182    41.117241    0.000000    0.000000    0.000000    -21.232866    -17.804710    -18.278702    11.397470    27.542419    -10.072843    3.493874    0.241247    -17.865488    0.000000    0.000000    0.000000    
-2.200963    152.353180    -101.653503    0.503157    -3.902062    47.179005    -1.824410    2.477762    -2.953704    -3.613857    1.620841    -0.946300    4.613364    4.303686    -17.948196    14.428027    1.043137    -17.345890    5.992900    8.115660    -19.316778    -26.069868    23.298920    -56.468864    -4.908260    -7.131740    -102.881676    12.755609    -13.985068    -7.216256    -8.526883    -1.516904    -4.077725    24.799496    -23.100077    49.958351    -20.102951    -14.583264    66.423431    -2.107897    -2.075226    36.231853    26.808022    -5.384105    6.785889    -11.393509    28.570675    -15.730273    0.564839    -21.652918    41.146477    0.000000    0.000000    0.000000    -21.026812    -17.920618    -18.020695    11.333322    27.313822    -10.067690    3.471816    0.408023    -17.864328    0.000000    0.000000    0.000000    
-2.286557    152.464645    -101.601326    0.443125    -3.868240    46.900242    -1.807306    2.471982    -2.856899    -3.617747    1.607559    -0.914214    4.592236    4.297763    -17.912937    14.471733    1.020377    -17.298273    5.981641    8.091650    -19.257536    -26.049603    23.297590    -56.447552    -4.911456    -7.149253    -102.907478    12.778300    -14.008308    -7.199109    -8.538316    -1.553828    -3.996031    24.795860    -23.075487    49.991001    -20.099920    -14.582458    66.393517    -2.094325    -2.081646    36.327187    26.625055    -5.287598    6.374754    -11.201069    28.414837    -15.859408    1.090917    -21.761057    41.105556    0.000000    0.000000    0.000000    -20.829552    -18.014231    -17.808754    11.236524    27.066036    -10.027359    3.440928    0.599259    -17.844946    0.000000    0.000000    0.000000    
